<?xml version="1.0" encoding="UTF-8"?>
<svg version="1.1" xmlns="http://www.w3.org/2000/svg" width="512" height="512">
<path d="M0 0 C1.77131067 2.03431387 3.0574015 3.84107114 4.4375 6.125 C5.06930176 7.12067993 5.06930176 7.12067993 5.71386719 8.13647461 C6.64918683 9.61381636 7.57666738 11.09614109 8.49755859 12.58251953 C10.06770692 15.10894279 11.66496826 17.61639861 13.26953125 20.12109375 C16.25795408 24.78904503 19.22860762 29.46799541 22.19433594 34.15039062 C25.0822784 38.70799803 27.97834027 43.2604297 30.875 47.8125 C31.73303223 49.16130249 31.73303223 49.16130249 32.60839844 50.53735352 C37.73464834 58.59177088 42.88188181 66.63269355 48.03198242 74.671875 C53.00397291 82.43561199 57.9538435 90.2131655 62.89111328 97.99902344 C65.81633273 102.60267518 68.76810699 107.186569 71.76171875 111.74609375 C72.36798096 112.67059326 72.97424316 113.59509277 73.59887695 114.54760742 C74.75864634 116.3122105 75.92237603 118.07421884 77.09057617 119.83325195 C77.86171753 121.00633911 77.86171753 121.00633911 78.6484375 122.203125 C79.10395996 122.89051758 79.55948242 123.57791016 80.02880859 124.28613281 C81 126 81 126 81 128 C82.32451172 127.29423828 82.32451172 127.29423828 83.67578125 126.57421875 C100.19864347 117.91762029 116.70397207 115.12333775 135.125 119.625 C152.27977154 124.988202 165.84620618 136.06951767 174.5625 151.82421875 C182.4826636 168.34813151 184.1958024 186.19838247 178.25 203.6875 C172.91853456 216.94830859 165.32436656 228.33351904 153 236 C153.64899902 239.41030158 154.96892067 241.83674737 156.81640625 244.76171875 C157.40873047 245.7043457 158.00105469 246.64697266 158.61132812 247.61816406 C159.25521484 248.63104492 159.89910156 249.64392578 160.5625 250.6875 C161.54959961 252.25902832 161.54959961 252.25902832 162.55664062 253.86230469 C165.80843195 259.02502144 169.09361364 264.16275863 172.44480896 269.2615509 C173.57451004 270.98057354 174.69969773 272.702475 175.82397461 274.42504883 C177.25770587 276.61577989 178.70230344 278.79944358 180.15844727 280.9753418 C180.80740967 281.96832275 181.45637207 282.96130371 182.125 283.984375 C182.99511719 285.29486816 182.99511719 285.29486816 183.8828125 286.63183594 C185 289 185 289 185.05493164 291.125 C183.39397632 294.07712609 181.06675967 294.70166563 177.99609375 296.015625 C177.39821548 296.27631775 176.80033722 296.5370105 176.18434143 296.80560303 C174.27447102 297.63454087 172.35646405 298.44236894 170.4375 299.25 C169.14068606 299.80852798 167.84445358 300.36840808 166.54882812 300.9296875 C163.37248109 302.30220843 160.18851071 303.65593858 157 305 C158.27984468 308.3962087 159.75142252 311.44024608 161.63671875 314.5390625 C162.13107422 315.36664063 162.62542969 316.19421875 163.13476562 317.046875 C164.1764986 318.77654484 165.22344725 320.50308332 166.27539062 322.2265625 C166.76587891 323.0515625 167.25636719 323.8765625 167.76171875 324.7265625 C168.21506592 325.47502441 168.66841309 326.22348633 169.13549805 326.99462891 C170 329 170 329 169 332 C166.88375039 333.22660145 164.84474375 334.26087567 162.625 335.265625 C161.96188812 335.57554886 161.29877625 335.88547272 160.61557007 336.20478821 C158.41493527 337.23000924 156.20766424 338.2400156 154 339.25 C152.45357063 339.96657252 150.90751431 340.68395061 149.36181641 341.40209961 C137.69350499 346.81100096 125.98032214 352.12392632 114.26171875 357.42285156 C104.80330152 361.70302166 95.39136976 366.07483538 86 370.5 C74.51865549 375.90970645 62.99130631 381.20711234 51.42724609 386.4375 C41.24612735 391.04455821 31.10903904 395.73696811 21 400.5 C9.51861962 405.90963198 -2.00869235 411.20711173 -13.57275391 416.4375 C-23.75388001 421.04456154 -33.89077524 425.73735163 -44 430.5 C-55.40212908 435.8703224 -66.83967676 441.15732992 -78.3125 446.375 C-79.03526123 446.7042749 -79.75802246 447.0335498 -80.50268555 447.37280273 C-82.53872481 448.29984642 -84.57577836 449.2246158 -86.61328125 450.1484375 C-87.77641846 450.67614746 -88.93955566 451.20385742 -90.13793945 451.74755859 C-93 453 -93 453 -96 454 C-96.5168335 452.99138916 -97.03366699 451.98277832 -97.56616211 450.94360352 C-108.66278398 429.28989098 -119.77755907 407.64571507 -130.92773438 386.01953125 C-134.43234758 379.22205396 -137.93497866 372.42355534 -141.4375 365.625 C-141.96142838 364.60808075 -141.96142838 364.60808075 -142.49594116 363.57061768 C-148.38112639 352.14742179 -154.25918376 340.72056954 -160.13497925 329.2925415 C-165.58513787 318.69252625 -171.04030315 308.09510544 -176.5 297.5 C-182.71777837 285.4337591 -188.92845424 273.36388384 -195.13525391 261.29199219 C-200.58532221 250.69216068 -206.04039693 240.09492346 -211.5 229.5 C-217.71777837 217.4337591 -223.92845424 205.36388384 -230.13525391 193.29199219 C-236.28143475 181.33829221 -242.43447413 169.38814237 -248.59228516 157.44042969 C-252.29286717 150.2596114 -255.98922703 143.07665085 -259.6796875 135.890625 C-260.46638434 134.35929073 -261.2530868 132.82795934 -262.03979492 131.29663086 C-263.57756071 128.30323883 -265.11397625 125.30915879 -266.6496582 122.31469727 C-269.93147651 115.92130438 -273.22913354 109.53915307 -276.61328125 103.19921875 C-277.14066895 102.20889648 -277.66805664 101.21857422 -278.21142578 100.19824219 C-279.16482638 98.41507084 -280.1249768 96.63548453 -281.09326172 94.86035156 C-282.12157884 92.93750868 -283.07101053 90.97274921 -284 89 C-283 87 -283 87 -280.53149414 86.05444336 C-279.46020264 85.73612549 -278.38891113 85.41780762 -277.28515625 85.08984375 C-276.12435547 84.73986328 -274.96355469 84.38988281 -273.76757812 84.02929688 C-272.54490234 83.66900391 -271.32222656 83.30871094 -270.0625 82.9375 C-267.65714222 82.21881827 -265.25217361 81.49883232 -262.84765625 80.77734375 C-261.77523682 80.46015381 -260.70281738 80.14296387 -259.59790039 79.81616211 C-257.05038893 79.09126817 -257.05038893 79.09126817 -255 78 C-255.30292969 77.40985107 -255.60585937 76.81970215 -255.91796875 76.21166992 C-257.28490607 73.54009607 -258.6425386 70.86390024 -260 68.1875 C-260.47695313 67.25873047 -260.95390625 66.32996094 -261.4453125 65.37304688 C-261.89648438 64.48037109 -262.34765625 63.58769531 -262.8125 62.66796875 C-263.23144531 61.84578857 -263.65039062 61.0236084 -264.08203125 60.17651367 C-265 58 -265 58 -265 55 C-264.37694159 54.86843286 -263.75388317 54.73686571 -263.1119442 54.60131168 C-251.905844 52.23497237 -240.69976135 49.86855006 -229.49378967 47.50160217 C-228.76363602 47.34737799 -228.03348237 47.1931538 -227.28120285 47.03425616 C-224.23858609 46.39158781 -221.19596988 45.74891688 -218.15335619 45.10623395 C-209.35502145 43.24779293 -200.55663195 41.38961188 -191.75808716 39.53216553 C-181.98314515 37.46858316 -172.20830294 35.40452866 -162.43359375 33.33984375 C-161.61281349 33.16647491 -160.79203324 32.99310608 -159.94638085 32.81448364 C-137.91220232 28.16007978 -115.88106664 23.49166326 -93.85468984 18.80047411 C-88.95617002 17.75718883 -84.0574883 16.71466716 -79.15869141 15.67268372 C-78.14596118 15.45726117 -78.14596118 15.45726117 -77.11277175 15.23748666 C-74.43062568 14.66695571 -71.748479 14.0964276 -69.06631517 13.52598011 C-60.68352288 11.74303479 -52.3017503 9.95537776 -43.92085743 8.16352367 C-39.16073791 7.14685565 -34.39975251 6.13429101 -29.63851738 5.12286186 C-27.44494786 4.65594404 -25.25175672 4.18724451 -23.05897713 3.71663094 C-20.08902924 3.07940087 -17.11783268 2.44835663 -14.14624023 1.81884766 C-13.28359747 1.63214288 -12.4209547 1.4454381 -11.53217125 1.2530756 C-3.43199355 -0.44946305 -3.43199355 -0.44946305 0 0 Z " fill="#FEFEFE" transform="translate(305,37)"/>
<path d="M0 0 C1.77131067 2.03431387 3.0574015 3.84107114 4.4375 6.125 C5.06930176 7.12067993 5.06930176 7.12067993 5.71386719 8.13647461 C6.64918683 9.61381636 7.57666738 11.09614109 8.49755859 12.58251953 C10.06770692 15.10894279 11.66496826 17.61639861 13.26953125 20.12109375 C16.25795408 24.78904503 19.22860762 29.46799541 22.19433594 34.15039062 C25.0822784 38.70799803 27.97834027 43.2604297 30.875 47.8125 C31.73303223 49.16130249 31.73303223 49.16130249 32.60839844 50.53735352 C37.73464834 58.59177088 42.88188181 66.63269355 48.03198242 74.671875 C53.00397291 82.43561199 57.9538435 90.2131655 62.89111328 97.99902344 C65.81633273 102.60267518 68.76810699 107.186569 71.76171875 111.74609375 C72.36798096 112.67059326 72.97424316 113.59509277 73.59887695 114.54760742 C74.75864634 116.3122105 75.92237603 118.07421884 77.09057617 119.83325195 C77.86171753 121.00633911 77.86171753 121.00633911 78.6484375 122.203125 C79.10395996 122.89051758 79.55948242 123.57791016 80.02880859 124.28613281 C81 126 81 126 81 128 C82.32451172 127.29423828 82.32451172 127.29423828 83.67578125 126.57421875 C100.19864347 117.91762029 116.70397207 115.12333775 135.125 119.625 C152.27977154 124.988202 165.84620618 136.06951767 174.5625 151.82421875 C182.4826636 168.34813151 184.1958024 186.19838247 178.25 203.6875 C172.91853456 216.94830859 165.32436656 228.33351904 153 236 C153.64899902 239.41030158 154.96892067 241.83674737 156.81640625 244.76171875 C157.40873047 245.7043457 158.00105469 246.64697266 158.61132812 247.61816406 C159.25521484 248.63104492 159.89910156 249.64392578 160.5625 250.6875 C161.54959961 252.25902832 161.54959961 252.25902832 162.55664062 253.86230469 C165.80843195 259.02502144 169.09361364 264.16275863 172.44480896 269.2615509 C173.57451004 270.98057354 174.69969773 272.702475 175.82397461 274.42504883 C177.25770587 276.61577989 178.70230344 278.79944358 180.15844727 280.9753418 C180.80740967 281.96832275 181.45637207 282.96130371 182.125 283.984375 C182.99511719 285.29486816 182.99511719 285.29486816 183.8828125 286.63183594 C185 289 185 289 185.05493164 291.125 C183.39397632 294.07712609 181.06675967 294.70166563 177.99609375 296.015625 C177.39821548 296.27631775 176.80033722 296.5370105 176.18434143 296.80560303 C174.27447102 297.63454087 172.35646405 298.44236894 170.4375 299.25 C169.14068606 299.80852798 167.84445358 300.36840808 166.54882812 300.9296875 C163.37248109 302.30220843 160.18851071 303.65593858 157 305 C158.27984468 308.3962087 159.75142252 311.44024608 161.63671875 314.5390625 C162.13107422 315.36664063 162.62542969 316.19421875 163.13476562 317.046875 C164.1764986 318.77654484 165.22344725 320.50308332 166.27539062 322.2265625 C166.76587891 323.0515625 167.25636719 323.8765625 167.76171875 324.7265625 C168.21506592 325.47502441 168.66841309 326.22348633 169.13549805 326.99462891 C170 329 170 329 169 332 C166.88375039 333.22660145 164.84474375 334.26087567 162.625 335.265625 C161.96188812 335.57554886 161.29877625 335.88547272 160.61557007 336.20478821 C158.41493527 337.23000924 156.20766424 338.2400156 154 339.25 C152.45357063 339.96657252 150.90751431 340.68395061 149.36181641 341.40209961 C137.69350499 346.81100096 125.98032214 352.12392632 114.26171875 357.42285156 C104.80330152 361.70302166 95.39136976 366.07483538 86 370.5 C74.51865549 375.90970645 62.99130631 381.20711234 51.42724609 386.4375 C41.24612735 391.04455821 31.10903904 395.73696811 21 400.5 C9.51861962 405.90963198 -2.00869235 411.20711173 -13.57275391 416.4375 C-23.75388001 421.04456154 -33.89077524 425.73735163 -44 430.5 C-55.40212908 435.8703224 -66.83967676 441.15732992 -78.3125 446.375 C-79.03526123 446.7042749 -79.75802246 447.0335498 -80.50268555 447.37280273 C-82.53872481 448.29984642 -84.57577836 449.2246158 -86.61328125 450.1484375 C-87.77641846 450.67614746 -88.93955566 451.20385742 -90.13793945 451.74755859 C-93 453 -93 453 -96 454 C-96.5168335 452.99138916 -97.03366699 451.98277832 -97.56616211 450.94360352 C-108.66278398 429.28989098 -119.77755907 407.64571507 -130.92773438 386.01953125 C-134.43234758 379.22205396 -137.93497866 372.42355534 -141.4375 365.625 C-141.96142838 364.60808075 -141.96142838 364.60808075 -142.49594116 363.57061768 C-148.38112639 352.14742179 -154.25918376 340.72056954 -160.13497925 329.2925415 C-165.58513787 318.69252625 -171.04030315 308.09510544 -176.5 297.5 C-182.71777837 285.4337591 -188.92845424 273.36388384 -195.13525391 261.29199219 C-200.58532221 250.69216068 -206.04039693 240.09492346 -211.5 229.5 C-217.71777837 217.4337591 -223.92845424 205.36388384 -230.13525391 193.29199219 C-236.28143475 181.33829221 -242.43447413 169.38814237 -248.59228516 157.44042969 C-252.29286717 150.2596114 -255.98922703 143.07665085 -259.6796875 135.890625 C-260.46638434 134.35929073 -261.2530868 132.82795934 -262.03979492 131.29663086 C-263.57756071 128.30323883 -265.11397625 125.30915879 -266.6496582 122.31469727 C-269.93147651 115.92130438 -273.22913354 109.53915307 -276.61328125 103.19921875 C-277.14066895 102.20889648 -277.66805664 101.21857422 -278.21142578 100.19824219 C-279.16482638 98.41507084 -280.1249768 96.63548453 -281.09326172 94.86035156 C-282.12157884 92.93750868 -283.07101053 90.97274921 -284 89 C-283 87 -283 87 -280.53149414 86.05444336 C-279.46020264 85.73612549 -278.38891113 85.41780762 -277.28515625 85.08984375 C-276.12435547 84.73986328 -274.96355469 84.38988281 -273.76757812 84.02929688 C-272.54490234 83.66900391 -271.32222656 83.30871094 -270.0625 82.9375 C-267.65714222 82.21881827 -265.25217361 81.49883232 -262.84765625 80.77734375 C-261.77523682 80.46015381 -260.70281738 80.14296387 -259.59790039 79.81616211 C-257.05038893 79.09126817 -257.05038893 79.09126817 -255 78 C-255.30292969 77.40985107 -255.60585937 76.81970215 -255.91796875 76.21166992 C-257.28490607 73.54009607 -258.6425386 70.86390024 -260 68.1875 C-260.47695313 67.25873047 -260.95390625 66.32996094 -261.4453125 65.37304688 C-261.89648438 64.48037109 -262.34765625 63.58769531 -262.8125 62.66796875 C-263.23144531 61.84578857 -263.65039062 61.0236084 -264.08203125 60.17651367 C-265 58 -265 58 -265 55 C-264.37694159 54.86843286 -263.75388317 54.73686571 -263.1119442 54.60131168 C-251.905844 52.23497237 -240.69976135 49.86855006 -229.49378967 47.50160217 C-228.76363602 47.34737799 -228.03348237 47.1931538 -227.28120285 47.03425616 C-224.23858609 46.39158781 -221.19596988 45.74891688 -218.15335619 45.10623395 C-209.35502145 43.24779293 -200.55663195 41.38961188 -191.75808716 39.53216553 C-181.98314515 37.46858316 -172.20830294 35.40452866 -162.43359375 33.33984375 C-161.61281349 33.16647491 -160.79203324 32.99310608 -159.94638085 32.81448364 C-137.91220232 28.16007978 -115.88106664 23.49166326 -93.85468984 18.80047411 C-88.95617002 17.75718883 -84.0574883 16.71466716 -79.15869141 15.67268372 C-78.14596118 15.45726117 -78.14596118 15.45726117 -77.11277175 15.23748666 C-74.43062568 14.66695571 -71.748479 14.0964276 -69.06631517 13.52598011 C-60.68352288 11.74303479 -52.3017503 9.95537776 -43.92085743 8.16352367 C-39.16073791 7.14685565 -34.39975251 6.13429101 -29.63851738 5.12286186 C-27.44494786 4.65594404 -25.25175672 4.18724451 -23.05897713 3.71663094 C-20.08902924 3.07940087 -17.11783268 2.44835663 -14.14624023 1.81884766 C-13.28359747 1.63214288 -12.4209547 1.4454381 -11.53217125 1.2530756 C-3.43199355 -0.44946305 -3.43199355 -0.44946305 0 0 Z M-19.921875 22.28515625 C-20.60580826 22.42143433 -21.28974152 22.5577124 -21.99440002 22.69812012 C-24.24714704 23.14864739 -26.49859734 23.60530546 -28.75 24.0625 C-30.33097046 24.38079214 -31.91194381 24.69906993 -33.49291992 25.01733398 C-44.44661021 27.23242327 -55.36873147 29.57689342 -66.27832031 31.99893188 C-77.45804487 34.48028454 -88.66534505 36.7792422 -99.9074707 38.95922852 C-106.45715496 40.24051882 -112.92615166 41.68721699 -119.39111328 43.34375 C-122.51384346 44.12925428 -125.64929723 44.77434251 -128.8125 45.375 C-136.3220539 46.84140826 -143.79378095 48.46026843 -151.26489258 50.11083984 C-157.79031826 51.54480948 -164.33217813 52.87723768 -170.88525391 54.17871094 C-178.57642709 55.70899424 -186.25590417 57.29750184 -193.9375 58.875 C-194.7847464 59.0488623 -195.6319928 59.22272461 -196.50491333 59.40185547 C-210.34213404 62.24156353 -224.17443556 65.10401067 -238 68 C-236.47323797 73.19591595 -234.18181353 77.69808932 -231.625 82.4375 C-230.71823934 84.13905088 -229.8120124 85.84088627 -228.90625 87.54296875 C-228.43058594 88.43419434 -227.95492187 89.32541992 -227.46484375 90.24365234 C-224.99115767 94.89830499 -222.55918269 99.57460268 -220.125 104.25 C-219.10682926 106.20315546 -218.08859962 108.15628021 -217.0703125 110.109375 C-216.56274414 111.08326172 -216.05517578 112.05714844 -215.53222656 113.06054688 C-213.02292092 117.87444744 -210.51136163 122.6871718 -208 127.5 C-206.99998887 129.41666086 -205.99998888 131.33332753 -205 133.25 C-204.505 134.19875 -204.01 135.1475 -203.5 136.125 C-199 144.75 -199 144.75 -197.49951172 147.62597656 C-196.50118384 149.53941125 -195.50281156 151.45282277 -194.50439453 153.36621094 C-191.97844349 158.20713636 -189.45330556 163.04848291 -186.9296875 167.890625 C-182.34481847 176.68596864 -177.75386578 185.47772098 -173.125 194.25 C-168.42957211 203.15003115 -163.80333831 212.08551797 -159.17675781 221.02148438 C-155.37246303 228.36499515 -151.54276394 235.69425399 -147.68310547 243.00878906 C-142.93504343 252.00979955 -138.23556463 261.03611027 -133.53222656 270.06054688 C-131.02292093 274.87444743 -128.51138974 279.68718648 -126 284.5 C-122.97542345 290.29628191 -119.95136915 296.09283329 -116.9296875 301.890625 C-112.34481847 310.68596864 -107.75386578 319.47772098 -103.125 328.25 C-99.04635968 335.98093032 -95.01899588 343.73791677 -91 351.5 C-86.76563743 359.67487943 -82.52734485 367.84750841 -78.25 376 C-77.84394531 376.77666016 -77.43789062 377.55332031 -77.01953125 378.35351562 C-75.45263374 381.33278961 -73.86894904 384.19657643 -72 387 C-67.5308862 386.35102507 -63.73010612 384.65617792 -59.68359375 382.74609375 C-58.96793747 382.41396881 -58.25228119 382.08184387 -57.51493835 381.73965454 C-55.96622239 381.02056005 -54.41857487 380.29916093 -52.87188721 379.57571411 C-48.68712647 377.61910108 -44.49391021 375.68078689 -40.30078125 373.7421875 C-39.00820404 373.14408012 -39.00820404 373.14408012 -37.68951416 372.53388977 C-29.20841753 368.61788284 -20.671961 364.83198134 -12.125 361.0625 C0.62040774 355.43507279 13.2968285 349.67132256 25.9375 343.8125 C38.16996684 338.14342874 50.4216437 332.53048796 62.73364258 327.03564453 C63.89790771 326.51599121 65.06217285 325.99633789 66.26171875 325.4609375 C66.85892227 325.19439362 67.45612579 324.92784973 68.07142639 324.65322876 C76.93549396 320.69327258 85.77962226 316.6889804 94.625 312.6875 C95.5136676 312.28556427 96.40233521 311.88362854 97.31793213 311.46951294 C111.5878005 305.01378753 125.83971525 298.51933072 140.07470703 291.98706055 C141.10681557 291.51395699 141.10681557 291.51395699 142.15977478 291.03129578 C143.99314268 290.19081997 145.82605844 289.34935807 147.65893555 288.5078125 C151.08861803 286.96000695 154.53692801 285.47123434 158 284 C157.34318347 280.41184529 155.83788611 277.85283011 153.90234375 274.78125 C153.2688501 273.77126953 152.63535645 272.76128906 151.98266602 271.72070312 C151.30776123 270.65787109 150.63285645 269.59503906 149.9375 268.5 C149.2580835 267.42169922 148.57866699 266.34339844 147.87866211 265.23242188 C143.35999407 258.08204959 138.78721923 250.97435133 134 244 C133.195625 244.2165625 133.195625 244.2165625 132.375 244.4375 C115.21658448 248.50133525 98.39760149 245.93647902 83.12890625 237.09375 C66.93463318 226.25713282 57.18810603 211.02227646 53.390625 191.9375 C51.12877685 174.92840194 55.69067839 160.57481814 64 146 C64.598125 145.29101562 65.19625 144.58203125 65.8125 143.8515625 C67.20875144 142.04599219 67.20875144 142.04599219 66.98046875 139.71484375 C65.62736507 135.9682021 63.52772111 132.84076485 61.3125 129.5625 C60.30106136 128.03322751 59.29069599 126.50324479 58.28125 124.97265625 C57.476875 123.75860107 57.476875 123.75860107 56.65625 122.52001953 C53.82483735 118.21196509 51.07186031 113.85441376 48.3125 109.5 C41.24520661 98.37434772 34.14101055 87.27251216 27.03222656 76.17333984 C24.35131188 71.98706774 21.67159887 67.80002739 18.9921875 63.61279297 C17.67224447 61.55038198 16.35193653 59.48820449 15.03125 57.42626953 C11.89495737 52.52891141 8.76219596 47.62938977 5.64093018 42.72244263 C4.16051182 40.39551842 2.6782317 38.06978304 1.19580078 35.74414062 C0.14563727 34.09490982 -0.90181839 32.44395576 -1.94921875 30.79296875 C-2.89861328 29.30410156 -2.89861328 29.30410156 -3.8671875 27.78515625 C-4.42519043 26.90738525 -4.98319336 26.02961426 -5.55810547 25.12524414 C-6.96199781 22.91257101 -6.96199781 22.91257101 -9 21 C-12.89005532 21 -16.11584108 21.52281348 -19.921875 22.28515625 Z " fill="#064EAF" transform="translate(305,37)"/>
<path d="M0 0 C0.34144043 0.65782471 0.68288086 1.31564941 1.03466797 1.9934082 C9.48106406 18.2656645 9.48106406 18.2656645 18 34.5 C21.86190293 41.8185836 25.68646201 49.1561048 29.5 56.5 C33.33512691 63.88513912 37.18059175 71.26433502 41.0625 78.625 C47.26254041 90.38118209 53.39869289 102.17062235 59.54101562 113.95703125 C64.65644141 123.77188886 69.77444593 133.58509545 74.9375 143.375 C79.38739255 151.81264615 83.78724471 160.2759297 88.18334961 168.74169922 C91.43712984 175.00430519 94.70635562 181.25827393 98 187.5 C101.86188683 194.8185921 105.68646196 202.1561047 109.5 209.5 C113.33512691 216.88513912 117.18059175 224.26433502 121.0625 231.625 C127.26254041 243.38118209 133.39869289 255.17062235 139.54101562 266.95703125 C142.54584885 272.72234023 145.55331136 278.48626332 148.56396484 284.24853516 C149.97902874 286.95981875 151.39002574 289.67319149 152.80078125 292.38671875 C153.67951527 294.0704024 154.55841323 295.7540005 155.4375 297.4375 C155.82631348 298.18805664 156.21512695 298.93861328 156.61572266 299.71191406 C159.18813933 304.62561882 161.99669942 309.33753887 165 314 C183.37007875 305.89511664 201.70513072 297.72325989 219.9375 289.3125 C231.8122647 283.83538343 243.70684087 278.41233359 255.64746094 273.07983398 C266.17520999 268.37660456 276.68311647 263.63016722 287.1875 258.875 C288.51427765 258.27449829 288.51427765 258.27449829 289.86785889 257.66186523 C296.24555778 254.77528017 302.6228342 251.88776255 309 249 C312.66923621 247.3384652 316.33851168 245.67701712 320.0078125 244.015625 C320.90805649 243.60794891 321.80830048 243.20027283 322.73582458 242.78024292 C327.1818944 240.76718597 331.6287623 238.75592804 336.07739258 236.74853516 C337.7898972 235.97563225 339.50238122 235.20268366 341.21484375 234.4296875 C342.0441188 234.05538605 342.87339386 233.68108459 343.72779846 233.29544067 C348.42512678 231.17249832 353.11406514 229.03249133 357.79454041 226.87265015 C360.52280589 225.61475139 363.2547901 224.36507427 365.98739624 223.11663818 C367.82067058 222.27494377 369.64835063 221.42109776 371.47583008 220.56689453 C372.55372803 220.07560059 373.63162598 219.58430664 374.7421875 219.078125 C375.6688623 218.64918945 376.59553711 218.22025391 377.55029297 217.77832031 C380.23302451 216.92596351 381.42495046 216.9301154 384 218 C386.09727554 220.58275599 388 223.61446534 388 227 C371.92275542 234.58575361 355.82421426 242.11533527 339.625 249.4375 C327.6511656 254.85039262 315.74332264 260.39020353 303.86529541 266.00997925 C292.77297249 271.25543088 281.62932716 276.37518623 270.44775391 281.42724609 C259.91813282 286.18748621 249.44549488 291.05806149 239 296 C226.4452484 301.93939921 213.83743074 307.74776067 201.17919922 313.46313477 C194.21788175 316.60942035 187.27695172 319.79262189 180.3671875 323.05078125 C179.66907959 323.37943176 178.97097168 323.70808228 178.25170898 324.04669189 C174.91443533 325.61871106 171.58039011 327.19704717 168.25097656 328.78564453 C166.49092285 329.61684814 166.49092285 329.61684814 164.6953125 330.46484375 C163.66422363 330.955896 162.63313477 331.44694824 161.57080078 331.95288086 C159 333 159 333 156 333 C155.45287354 331.93080322 154.90574707 330.86160645 154.34204102 329.76000977 C143.30296551 308.18925067 132.24442408 286.62881929 121.13964844 265.09181213 C117.10838563 257.27239474 113.08534199 249.44875202 109.0625 241.625 C108.68920563 240.89903625 108.31591125 240.17307251 107.93130493 239.42510986 C106.04284097 235.75251641 104.15445228 232.07988427 102.26611328 228.40722656 C98.88588186 221.83306852 95.50490956 215.2592915 92.12399292 208.68548584 C90.24929825 205.04033951 88.37465155 201.39516851 86.5 197.75 C85.75000023 196.29166655 85.00000023 194.83333322 84.25 193.375 C82.75 190.45833333 81.25 187.54166667 79.75 184.625 C79.37875504 183.90313507 79.00751007 183.18127014 78.62501526 182.43753052 C77.87496348 180.97909593 77.12491261 179.52066087 76.37486267 178.06222534 C74.50066247 174.41793729 72.62644633 170.77365745 70.75219727 167.12939453 C67.36763447 160.54846101 63.98318837 153.96746762 60.59933472 147.38616943 C52.90496671 132.42132221 45.20763523 117.45801895 37.5 102.5 C32.05893619 91.9406607 26.62145349 81.37949042 21.18908691 70.81567383 C20.06857478 68.63681255 18.9478761 66.4580473 17.82714844 64.27929688 C14.31926031 57.45913025 10.81338909 50.63794273 7.31321716 43.81381226 C5.68461215 40.63891599 4.05498012 37.46454741 2.42526245 34.29022217 C1.65466835 32.78857315 0.88457018 31.28666951 0.11502075 29.78448486 C-0.95850206 27.68899923 -2.03372868 25.59439624 -3.109375 23.5 C-3.44304581 22.84800629 -3.77671661 22.19601257 -4.12049866 21.52426147 C-6.63024641 16.645324 -9.29766979 11.8692019 -12.07519531 7.13671875 C-13 5 -13 5 -12 2 C-7.86787101 0.17417556 -4.46436767 -0.08117032 0 0 Z " fill="#FAFBFD" transform="translate(61,133)"/>
<path d="M0 0 C7.99807916 5.78522905 13.78347826 12.44218611 18.25 21.25 C18.59160156 21.91128906 18.93320312 22.57257813 19.28515625 23.25390625 C23.69884161 33.74410727 22.29820281 47.91781339 18.5859375 58.34375 C13.00265104 70.48984686 2.97220097 80.33620579 -9.3984375 85.4375 C-21.93118884 89.76775296 -34.84690543 89.33418658 -46.96875 83.7734375 C-59.47197814 76.85877345 -67.43162835 67.50575127 -72.125 54 C-75.05661077 43.58603537 -74.85208445 33.28100812 -70.75 23.25 C-70.42128906 22.43015625 -70.09257812 21.6103125 -69.75390625 20.765625 C-64.92631637 10.00795065 -57.21055024 2.48846021 -46.75 -2.75 C-46.03972656 -3.1625 -45.32945312 -3.575 -44.59765625 -4 C-31.08101904 -10.84146137 -12.36990756 -7.66055189 0 0 Z " fill="#3498DA" transform="translate(448.75,177.75)"/>
<path d="M0 0 C0.69969682 2.24623699 1.38435043 4.49716414 2.0625 6.75 C2.44535156 8.00296875 2.82820312 9.2559375 3.22265625 10.546875 C3.96515749 13.84522223 3.94299411 14.93306589 3 18 C2.4330542 18.15033691 1.8661084 18.30067383 1.28198242 18.45556641 C-8.70731036 21.11495555 -18.66397575 23.81452937 -28.5 27 C-35.18548915 29.16080294 -41.90189327 31.11531061 -48.6875 32.9375 C-63.6987402 36.96985577 -78.63850476 41.24380586 -93.4375 46 C-101.08016273 48.45266446 -108.77483218 50.69662945 -116.5 52.875 C-117.59368896 53.18566406 -118.68737793 53.49632812 -119.81420898 53.81640625 C-120.83458252 54.10128906 -121.85495605 54.38617188 -122.90625 54.6796875 C-124.27233398 55.06229736 -124.27233398 55.06229736 -125.66601562 55.45263672 C-128 56 -128 56 -131 56 C-131.67321284 53.75194998 -132.33834123 51.50147776 -133 49.25 C-133.37125 47.99703125 -133.7425 46.7440625 -134.125 45.453125 C-135 42 -135 42 -135 38 C-116.8309416 32.64309012 -98.653819 27.31517115 -80.43579102 22.12695312 C-74.49742715 20.43366431 -68.56921457 18.70871579 -62.64697266 16.95996094 C-55.56882992 14.86992577 -48.48395819 12.80318562 -41.39794922 10.73999023 C-36.03150225 9.17722434 -30.66670897 7.60914059 -25.3046875 6.03125 C-24.21744385 5.7120459 -23.1302002 5.3928418 -22.01000977 5.06396484 C-19.92405832 4.4514147 -17.8385851 3.83723298 -15.75366211 3.22119141 C-14.81014893 2.94452637 -13.86663574 2.66786133 -12.89453125 2.3828125 C-12.06800049 2.13934082 -11.24146973 1.89586914 -10.38989258 1.64501953 C-6.86798128 0.69447406 -3.65678438 0 0 0 Z " fill="#044DAE" transform="translate(305,134)"/>
<path d="M0 0 C0.83679277 2.62394306 1.66956942 5.24904384 2.5 7.875 C2.85771484 8.99455078 2.85771484 8.99455078 3.22265625 10.13671875 C5 15.7734375 5 15.7734375 5 18 C4.00774414 18.28697754 3.01548828 18.57395508 1.99316406 18.86962891 C-9.47539106 22.20458191 -20.86922771 25.75308078 -32.25 29.375 C-33.15008789 29.66068848 -34.05017578 29.94637695 -34.97753906 30.24072266 C-45.81746085 33.681387 -56.63676675 37.17017536 -67.40991211 40.81542969 C-73.19190557 42.76146481 -79.01230277 44.53364055 -84.87573242 46.2175293 C-88.42351025 47.23660363 -91.95348516 48.29122262 -95.46875 49.41796875 C-96.19731201 49.65112793 -96.92587402 49.88428711 -97.67651367 50.12451172 C-99.06107292 50.57046988 -100.44415983 51.02103585 -101.82543945 51.47705078 C-105.10732209 52.532261 -107.49984314 53 -111 53 C-111.83698386 50.54285453 -112.66972424 48.08441143 -113.5 45.625 C-113.73847656 44.92632812 -113.97695312 44.22765625 -114.22265625 43.5078125 C-116 38.2265625 -116 38.2265625 -116 36 C-111.7717044 34.58072468 -107.54220259 33.16507617 -103.3125 31.75 C-102.13365234 31.35425781 -100.95480469 30.95851562 -99.74023438 30.55078125 C-92.87885354 28.2573882 -85.99911171 26.05131257 -79.07885742 23.94238281 C-74.37297442 22.50199677 -69.6869452 21.00064474 -65 19.5 C-59.3555579 17.69278827 -53.70672014 15.90508709 -48.0390625 14.171875 C-42.52157222 12.48021477 -37.02090475 10.73967222 -31.5234375 8.984375 C-29.8476738 8.45046575 -28.17189238 7.9166121 -26.49609375 7.3828125 C-23.91255151 6.55976339 -21.32946504 5.73539429 -18.74755859 4.90722656 C-16.21576174 4.09565001 -13.68228527 3.28952171 -11.1484375 2.484375 C-10.37349945 2.23443787 -9.5985614 1.98450073 -8.80014038 1.72698975 C-5.75961916 0.76508482 -3.20968752 0 0 0 Z " fill="#044DAE" transform="translate(312,197)"/>
<path d="M0 0 C0.84161854 2.08000011 1.67300763 4.16414146 2.5 6.25 C3.19609375 7.99023438 3.19609375 7.99023438 3.90625 9.765625 C5 13 5 13 5 17 C-3.7912648 20.39687396 -12.58294941 23.79266045 -21.375 27.1875 C-22.02289867 27.43767128 -22.67079735 27.68784256 -23.33832932 27.94559479 C-44.21006845 36.00434662 -65.09171219 44.03647326 -86 52 C-88.56538479 49.43461521 -89.37357879 46.93954104 -90.6875 43.5625 C-91.14511719 42.40878906 -91.60273438 41.25507813 -92.07421875 40.06640625 C-93 37 -93 37 -92 34 C-90.2819519 33.01885986 -90.2819519 33.01885986 -88.00732422 32.15332031 C-86.72271553 31.65492897 -86.72271553 31.65492897 -85.41215515 31.14646912 C-83.99770866 30.61763878 -83.99770866 30.61763878 -82.5546875 30.078125 C-81.57309158 29.70079727 -80.59149567 29.32346954 -79.58015442 28.93470764 C-76.34914287 27.69559822 -73.11227664 26.47263759 -69.875 25.25 C-67.65301982 24.40228607 -65.43142366 23.55356492 -63.21020508 22.70385742 C-58.68286599 20.97321569 -54.15337791 19.24836335 -49.62255859 17.52685547 C-43.47177781 15.18569727 -37.33703847 12.80508913 -31.20703125 10.41015625 C-28.54387453 9.37269412 -25.88051575 8.33575239 -23.21710205 7.2989502 C-21.53584072 6.64332115 -19.85529228 5.98586095 -18.17547607 5.32653809 C-15.85244497 4.41583039 -13.52631007 3.5135532 -11.19921875 2.61328125 C-10.5222847 2.34548355 -9.84535065 2.07768585 -9.14790344 1.80177307 C-5.8230525 0.52490735 -3.62932656 0 0 0 Z " fill="#044CAE" transform="translate(323,263)"/>
<path d="M0 0 C3.43761572 2.12108204 5.77560839 4.1042085 7 8 C7.4953175 13.349429 6.65199778 16.38506064 4 21 C1.66015625 23.80859375 1.66015625 23.80859375 -0.9375 26.4375 C-1.79214844 27.32308594 -2.64679688 28.20867187 -3.52734375 29.12109375 C-6 31 -6 31 -8.31640625 30.78515625 C-8.87199219 30.52605469 -9.42757813 30.26695312 -10 30 C-10 26 -10 26 -7.8125 23.703125 C-6.884375 22.89359375 -5.95625 22.0840625 -5 21.25 C-1.37777467 17.93001365 -1.37777467 17.93001365 0.734375 13.640625 C0.82911031 11.25230069 0.82911031 11.25230069 0 8 C-1.90668244 5.72637666 -1.90668244 5.72637666 -5.0625 5.37109375 C-11.01911437 6.32249743 -13.90136271 9.84167165 -18 14.0625 C-19.18142578 15.19075195 -19.18142578 15.19075195 -20.38671875 16.34179688 C-24.97396668 20.76938987 -24.97396668 20.76938987 -26 26.80859375 C-25.67 27.86175781 -25.34 28.91492188 -25 30 C-25 31.32 -25 32.64 -25 34 C-26.98 34.495 -26.98 34.495 -29 35 C-31.85492754 31.31238526 -32.83115838 28.04066647 -32.6640625 23.453125 C-31.23423252 18.17116483 -26.82126836 14.69745701 -23 11 C-22.11441406 10.08089844 -21.22882813 9.16179687 -20.31640625 8.21484375 C-13.57011095 1.24801577 -9.86114388 -2.44767678 0 0 Z " fill="#F4F9FC" transform="translate(445,188)"/>
<path d="M0 0 C2.40547839 0.96219136 3.73968982 1.58206255 5.12890625 3.8125 C6.66861433 7.67903149 6.19500417 11.06889339 5 15 C3.06055605 18.07635937 0.59033371 20.46400896 -2 23 C-2.90234375 23.94875 -3.8046875 24.8975 -4.734375 25.875 C-13.87816363 35.38935758 -13.87816363 35.38935758 -21.375 36.5 C-26.24098685 35.8288294 -28.73783993 33.5570446 -32 30 C-33.89990566 26.20018867 -33.73680668 22.11887011 -33 18 C-31.09306681 14.85852047 -28.67433504 12.49818123 -26 10 C-24.85244833 8.83502347 -23.70644584 7.66851746 -22.5625 6.5 C-21.716875 5.675 -20.87125 4.85 -20 4 C-18.68 4.66 -17.36 5.32 -16 6 C-16 9 -16 9 -18.40625 11.48828125 C-19.94935094 12.91715264 -21.5097823 14.32109256 -23.08984375 15.70898438 C-25.72321362 18.16793624 -26.9341416 19.554907 -27.46875 23.16796875 C-27.16725517 26.19478375 -27.16725517 26.19478375 -25 29 C-20.80518567 29.77056915 -18.46490158 29.95211956 -14.84765625 27.60107422 C-12.60416876 25.64625565 -10.55103388 23.59298468 -8.5 21.4375 C-7.77296875 20.73302734 -7.0459375 20.02855469 -6.296875 19.30273438 C-2.90025961 15.83908053 -1.13487333 14.03126224 -0.4921875 9.1171875 C-0.92685642 6.11409736 -0.92685642 6.11409736 -1.625 3.6875 C-1.74875 3.130625 -1.8725 2.57375 -2 2 C-1.34 1.34 -0.68 0.68 0 0 Z " fill="#F4F9FC" transform="translate(427,213)"/>
</svg>
